<svg width="256" height="256" viewBox="0 0 256 256" xmlns="http://www.w3.org/2000/svg">
  <defs>
    <linearGradient id="grad" x1="0%" y1="0%" x2="100%" y2="100%">
      <stop offset="0%" style="stop-color:#4F46E5;stop-opacity:1" />
      <stop offset="100%" style="stop-color:#7C3AED;stop-opacity:1" />
    </linearGradient>
  </defs>
  
  <rect width="256" height="256" rx="48" fill="url(#grad)"/>
  
  <g transform="translate(128, 128)">
    <circle cx="0" cy="-35" r="28" fill="white" opacity="0.95"/>
    <rect x="-18" y="-15" width="36" height="48" rx="4" fill="white" opacity="0.95"/>
    
    <path d="M -45 25 Q -45 0 -20 0 L -10 0 L -10 55 L -50 55 Q -50 35 -45 25" fill="white" opacity="0.85"/>
    <circle cx="-30" cy="10" r="4" fill="#4F46E5"/>
    
    <path d="M 45 25 Q 45 0 20 0 L 10 0 L 10 55 L 50 55 Q 50 35 45 25" fill="white" opacity="0.85"/>
    <circle cx="30" cy="10" r="4" fill="#4F46E5"/>
    
    <circle cx="-30" cy="42" r="6" fill="#4F46E5" opacity="0.6"/>
    <circle cx="30" cy="42" r="6" fill="#4F46E5" opacity="0.6"/>
  </g>
  
  <text x="128" y="220" font-family="Arial, sans-serif" font-size="32" font-weight="bold" fill="white" text-anchor="middle" opacity="0.95">M</text>
</svg>
